<svg xmlns="http://www.w3.org/2000/svg" width="37" height="38" viewBox="0 0 37 38" fill="none">
  <g clip-path="url(#clip0_375_763)">
    <path d="M30.3555 6.60263C30.8755 7.13367 31.2677 7.77606 31.5026 8.48115C31.7375 9.18625 31.8089 9.93555 31.7113 10.6723C31.6138 11.4091 31.3498 12.114 30.9395 12.7336C30.5291 13.3532 29.9832 13.8714 29.3429 14.2488C24.7275 16.9622 19.3418 18.0664 14.031 17.388C8.72026 16.7096 3.78506 14.287 0 10.5005L6.83136 3.52734C9.09334 5.78874 12.0393 7.2392 15.2109 7.65308C18.3825 8.06697 21.602 7.42108 24.3686 5.81589C25.3103 5.26096 26.4104 5.03624 27.4943 5.17734C28.5783 5.31845 29.5841 5.8173 30.3524 6.59484L30.3555 6.60263Z" fill="#9C5AFF"/>
    <path d="M30.3256 6.57367C29.41 5.65858 28.1685 5.14453 26.8741 5.14453C25.5796 5.14453 24.3381 5.65858 23.4226 6.57367L2.70258 27.2936C1.78749 28.2092 1.27344 29.4507 1.27344 30.7452C1.27344 32.0396 1.78749 33.2811 2.70258 34.1967C3.15571 34.6502 3.69377 35.0099 4.286 35.2553C4.87823 35.5008 5.51302 35.6271 6.15409 35.6271C6.79516 35.6271 7.42996 35.5008 8.02218 35.2553C8.61441 35.0099 9.15247 34.6502 9.6056 34.1967L30.3256 13.4767C30.7791 13.0236 31.1388 12.4855 31.3842 11.8933C31.6297 11.301 31.756 10.6663 31.756 10.0252C31.756 9.38411 31.6297 8.74932 31.3842 8.15709C31.1388 7.56486 30.7791 7.02681 30.3256 6.57367Z" fill="url(#paint0_linear_375_763)"/>
    <path d="M2.67607 34.1579C2.15609 33.6271 1.76372 32.985 1.52871 32.2801C1.29369 31.5752 1.22219 30.826 1.31962 30.0894C1.41704 29.3527 1.68085 28.6479 2.09104 28.0284C2.50123 27.4088 3.04705 26.8907 3.68715 26.5134C8.30282 23.8004 13.6885 22.6963 18.9994 23.3744C24.3102 24.0525 29.2457 26.4744 33.0316 30.2601L26.1971 37.2348C23.9352 34.9734 20.9892 33.5229 17.8176 33.109C14.646 32.6952 11.4265 33.341 8.65994 34.9462C7.71711 35.4997 6.61653 35.7227 5.5326 35.58C4.44868 35.4372 3.4434 34.9367 2.67607 34.1579Z" fill="url(#paint1_linear_375_763)"/>
  </g>
  <defs>
    <linearGradient id="paint0_linear_375_763" x1="31.441" y1="8.10508" x2="10.288" y2="25.5052" gradientUnits="userSpaceOnUse">
      <stop stop-color="#22BFFF"/>
      <stop offset="0.15" stop-color="#22BFFF" stop-opacity="0.84"/>
      <stop offset="0.57" stop-color="#22BFFF" stop-opacity="0.39"/>
      <stop offset="0.87" stop-color="#22BFFF" stop-opacity="0.11"/>
      <stop offset="1" stop-color="#22BFFF" stop-opacity="0"/>
    </linearGradient>
    <linearGradient id="paint1_linear_375_763" x1="1.66968" y1="30.3489" x2="32.8291" y2="30.1214" gradientUnits="userSpaceOnUse">
      <stop stop-color="#FFC99E"/>
      <stop offset="0.67" stop-color="#FF87A4"/>
      <stop offset="1" stop-color="#FF6BA6"/>
    </linearGradient>
    <clipPath id="clip0_375_763">
      <rect width="36.4579" height="37.2336" fill="white"/>
    </clipPath>
  </defs>
</svg>